<?xml version="1.0" encoding="utf-8"?>
<!-- Generator: Adobe Illustrator 16.0.0, SVG Export Plug-In . SVG Version: 6.00 Build 0)  -->
<!DOCTYPE svg PUBLIC "-//W3C//DTD SVG 1.1//EN" "http://www.w3.org/Graphics/SVG/1.1/DTD/svg11.dtd">
<svg version="1.1" id="Layer_1" xmlns="http://www.w3.org/2000/svg" xmlns:xlink="http://www.w3.org/1999/xlink" x="0px" y="0px"
	 width="288.509px" height="161.788px" viewBox="0 0 288.509 161.788" enable-background="new 0 0 288.509 161.788"
	 xml:space="preserve">
<rect fill="#E31837" width="288.509" height="161.788"/>
<g>
	<text transform="matrix(1 0 0 1 42.1406 119.5786)" fill="#FFFFFF" font-family="'TheSans-SemiLight'" font-size="25.02">Connect your Style</text>
	<g>
		<path fill="#FFFFFF" d="M246.377,57.943c-2.426-3.674-6.609-5.501-12.576-5.501c-5.93,0-11.059,1.685-15.39,5.054
			c-4.312,3.375-7.222,7.981-8.73,13.808c-1.447,5.603-0.918,10.051,1.611,13.358c2.518,3.309,6.644,4.961,12.397,4.961
			c5.128,0,9.514-0.967,13.151-2.918c3.629-1.951,6.404-4.82,8.306-8.609h-12.752c-0.54,0.936-1.316,1.654-2.312,2.156
			c-0.986,0.508-2.121,0.754-3.415,0.754c-1.923,0-3.239-0.599-4.004-1.804c-0.757-1.2-0.932-3.818-0.416-6.027l24.969-0.046
			l0.226-0.827C249.123,65.79,248.798,61.617,246.377,57.943 M235.614,66.92h-11.647c0.623-2.077,1.579-3.71,2.886-4.876
			c1.299-1.176,2.802-1.758,4.517-1.758c1.859,0,3.137,0.547,3.838,1.656C235.914,63.057,236.04,64.708,235.614,66.92"/>
		<polygon fill="#FFFFFF" points="199.957,68.987 212.744,53.807 195.961,53.807 185.873,67.104 193.341,38.254 177.657,38.254 
			168.521,73.595 164.549,88.918 164.525,89.03 164.368,89.624 180.266,89.624 180.508,88.684 185.003,71.554 187.804,86.104 
			187.804,86.104 188.486,89.624 206.521,89.624 205.299,85.811 		"/>
		<polygon fill="#FFFFFF" points="111.483,38.02 89.69,38.02 73.781,57.52 73.026,57.52 79.365,38.02 58.762,38.02 41.413,89.624 
			62.024,89.624 69.145,67.793 69.9,67.793 74.385,89.624 97.343,89.624 90.062,61.591 		"/>
		<path fill="#FFFFFF" d="M138.031,57.749c-2.576-3.281-6.88-4.914-12.912-4.914c-6.022,0-11.174,1.633-15.468,4.914
			c-4.29,3.267-7.179,7.747-8.646,13.437c-1.477,5.714-0.908,10.217,1.688,13.511c2.604,3.287,6.9,4.928,12.908,4.928
			c6.007,0,11.146-1.641,15.438-4.928c4.303-3.293,7.18-7.796,8.658-13.511C141.172,65.495,140.613,61.015,138.031,57.749
			 M124.324,71.117c-0.848,3.283-1.774,5.652-2.773,7.114c-0.994,1.458-2.177,2.185-3.555,2.185c-1.382,0-2.182-0.722-2.41-2.16
			c-0.22-1.45,0.077-3.829,0.941-7.139c0.857-3.292,1.761-5.636,2.738-7.062c0.965-1.431,2.133-2.14,3.513-2.14
			c1.386,0,2.188,0.726,2.439,2.15C125.461,65.509,125.166,67.852,124.324,71.117"/>
		<polygon fill="#FFFFFF" points="157.803,89.249 157.795,89.249 170.994,38.233 154.342,38.233 141.153,89.249 141.053,89.624 
			157.702,89.624 		"/>
	</g>
</g>
</svg>
